<svg fill="#000000" xmlns="http://www.w3.org/2000/svg"  viewBox="0 0 48 48" width="48px" height="48px"><path d="M 35.5 3 C 32.316385 3 29.491595 4.5852966 27.765625 7 L 11.5 7 C 8.4802259 7 6 9.4802259 6 12.5 L 6 37.5 C 6 40.519774 8.4802259 43 11.5 43 L 36.5 43 C 39.519774 43 42 40.519774 42 37.5 L 42 19.693359 C 43.52453 17.664135 45 15.506079 45 12.476562 C 45 7.2583961 40.726284 3 35.5 3 z M 35.5 6 C 39.109716 6 42 8.8847299 42 12.476562 C 42 14.69209 40.93429 16.141555 39.326172 18.265625 C 38.057178 19.941766 36.628032 22.186244 35.5 25 C 34.371968 22.186244 32.942822 19.941766 31.673828 18.265625 C 30.06571 16.141555 29 14.69209 29 12.476562 C 29 8.8847299 31.890284 6 35.5 6 z M 11.5 10 L 26.341797 10 C 26.125724 10.791015 26 11.619076 26 12.476562 C 26 14.991244 27.017951 16.904478 28.234375 18.644531 L 9.0351562 37.84375 C 9.0199745 37.730558 9 37.617889 9 37.5 L 9 12.5 C 9 11.101774 10.101774 10 11.5 10 z M 35.5 10 C 34.119 10 33 11.119 33 12.5 C 33 13.881 34.119 15 35.5 15 C 36.881 15 38 13.881 38 12.5 C 38 11.119 36.881 10 35.5 10 z M 16.515625 12 C 13.490048 12 11.015625 14.474423 11.015625 17.5 C 11.015625 20.525577 13.490048 23 16.515625 23 C 19.333765 23 21.667751 20.852007 21.980469 18.113281 A 1.0001 1.0001 0 0 0 20.986328 17 L 17.015625 17 A 1.0001 1.0001 0 1 0 17.015625 19 L 19.419922 19 C 18.835281 20.116815 17.865351 21 16.515625 21 C 14.571202 21 13.015625 19.444423 13.015625 17.5 C 13.015625 15.555577 14.571202 14 16.515625 14 C 17.355012 14 18.115 14.291164 18.716797 14.779297 A 1.0001 1.0001 0 1 0 19.976562 13.226562 C 19.032359 12.460695 17.822238 12 16.515625 12 z M 30.033203 21.087891 C 31.402376 22.933637 32.725514 24.943963 33.513672 27.962891 L 33.515625 27.962891 C 33.552145 28.102405 33.535375 28.288143 33.714844 28.767578 C 33.804574 29.007296 33.993117 29.366839 34.357422 29.636719 C 34.72168 29.906599 35.17174 30 35.5 30 C 35.828826 30 36.280435 29.90692 36.644531 29.636719 C 37.008628 29.366518 37.19556 29.005162 37.285156 28.765625 C 37.464349 28.286551 37.448068 28.10328 37.484375 27.964844 L 37.484375 27.962891 L 37.486328 27.962891 C 37.877609 26.464145 38.405158 25.220399 39 24.113281 L 39 37.5 C 39 37.617889 38.980025 37.730558 38.964844 37.84375 L 26.121094 25 L 30.033203 21.087891 z M 24 27.121094 L 36.84375 39.964844 C 36.730558 39.980025 36.617889 40 36.5 40 L 11.5 40 C 11.382111 40 11.269442 39.980025 11.15625 39.964844 L 24 27.121094 z"/></svg>